# MagicaVoxel @ Ephtracy

# group
o 

# material
mtllib DOOM_DoubleBarrelShotgunShort_Metal.mtl
usemtl palette

# normals
vn -1 0 0
vn 1 0 0
vn 0 0 1
vn 0 0 -1
vn 0 -1 0
vn 0 1 0

# texcoords
vt 0.943359 0.5
vt 0.947266 0.5
vt 0.951172 0.5
vt 0.955078 0.5
vt 0.978516 0.5

# verts
v 3.4 4 -1.5
v 3.4 4 -1.6
v 3.4 4.4 -1.5
v 3.4 4.4 -1.6
v 3.5 3.9 -1.5
v 3.5 3.9 -1.6
v 3.5 4 -1.5
v 3.5 4 -1.6
v 3.5 4.4 -1.4
v 3.5 4.4 -1.5
v 3.5 4.4 -1.6
v 3.5 4.4 -1.7
v 3.5 4.5 -1.5
v 3.5 4.5 -1.6
v 3.5 4.6 -1.5
v 3.5 4.6 -1.6
v 3.5 4.7 -1.4
v 3.5 4.7 -1.5
v 3.5 4.7 -1.6
v 3.5 4.7 -1.7
v 3.5 4.8 -1.5
v 3.5 4.8 -1.6
v 3.6 4.2 -1.5
v 3.6 4.2 -1.6
v 3.6 4.4 -1.5
v 3.6 4.4 -1.6
v 3.7 4.1 -1.5
v 3.7 4.1 -1.6
v 3.7 4.2 -1.5
v 3.7 4.2 -1.6
v 3.7 4.5 -1.3
v 3.7 4.5 -1.4
v 3.7 4.5 -1.7
v 3.7 4.5 -1.8
v 3.7 4.7 -1.3
v 3.7 4.7 -1.4
v 3.7 4.7 -1.5
v 3.7 4.7 -1.6
v 3.7 4.7 -1.7
v 3.7 4.7 -1.8
v 3.7 4.8 -1.4
v 3.7 4.8 -1.5
v 3.7 4.8 -1.6
v 3.7 4.8 -1.7
v 4 4 -1.5
v 4 4 -1.6
v 4 4.3 -1.4
v 4 4.3 -1.5
v 4 4.3 -1.6
v 4 4.3 -1.7
v 4 4.4 -1.4
v 4 4.4 -1.5
v 4 4.4 -1.6
v 4 4.4 -1.7
v 9.6 4.8 -1.4
v 9.6 4.8 -1.5
v 9.6 4.8 -1.6
v 9.6 4.8 -1.7
v 9.6 4.9 -1.4
v 9.6 4.9 -1.5
v 9.6 4.9 -1.6
v 9.6 4.9 -1.7
v 3.5 4 -1.5
v 3.5 4 -1.6
v 3.5 4.4 -1.5
v 3.5 4.4 -1.6
v 3.7 4.2 -1.5
v 3.7 4.2 -1.6
v 3.7 4.4 -1.5
v 3.7 4.4 -1.6
v 3.9 4.1 -1.5
v 3.9 4.1 -1.6
v 3.9 4.2 -1.5
v 3.9 4.2 -1.6
v 4 3.9 -1.5
v 4 3.9 -1.6
v 4 4 -1.5
v 4 4 -1.6
v 4.1 4 -1.5
v 4.1 4 -1.6
v 4.1 4.3 -1.4
v 4.1 4.3 -1.5
v 4.1 4.3 -1.6
v 4.1 4.3 -1.7
v 4.1 4.4 -1.5
v 4.1 4.4 -1.6
v 4.1 4.5 -1.4
v 4.1 4.5 -1.5
v 4.1 4.5 -1.6
v 4.1 4.5 -1.7
v 4.1 4.6 -1.5
v 4.1 4.6 -1.6
v 4.1 4.7 -1.5
v 4.1 4.7 -1.6
v 4.1 4.8 -1.5
v 4.1 4.8 -1.6
v 6.2 4.5 -1.3
v 6.2 4.5 -1.4
v 6.2 4.5 -1.7
v 6.2 4.5 -1.8
v 6.2 4.6 -1.3
v 6.2 4.6 -1.4
v 6.2 4.6 -1.7
v 6.2 4.6 -1.8
v 9.6 4.6 -1.4
v 9.6 4.6 -1.5
v 9.6 4.6 -1.6
v 9.6 4.6 -1.7
v 9.6 4.7 -1.4
v 9.6 4.7 -1.5
v 9.6 4.7 -1.6
v 9.6 4.7 -1.7
v 9.7 4.5 -1.4
v 9.7 4.5 -1.5
v 9.7 4.5 -1.6
v 9.7 4.5 -1.7
v 9.7 4.6 -1.3
v 9.7 4.6 -1.4
v 9.7 4.6 -1.5
v 9.7 4.6 -1.6
v 9.7 4.6 -1.7
v 9.7 4.6 -1.8
v 9.7 4.7 -1.3
v 9.7 4.7 -1.4
v 9.7 4.7 -1.5
v 9.7 4.7 -1.6
v 9.7 4.7 -1.7
v 9.7 4.7 -1.8
v 9.7 4.9 -1.4
v 9.7 4.9 -1.5
v 9.7 4.9 -1.6
v 9.7 4.9 -1.7
v 3.7 4.5 -1.3
v 3.7 4.7 -1.3
v 6.2 4.5 -1.3
v 6.2 4.6 -1.3
v 9.7 4.6 -1.3
v 9.7 4.7 -1.3
v 3.5 4.4 -1.4
v 3.5 4.7 -1.4
v 3.7 4.5 -1.4
v 3.7 4.7 -1.4
v 3.7 4.8 -1.4
v 4 4.3 -1.4
v 4 4.4 -1.4
v 4.1 4.3 -1.4
v 4.1 4.5 -1.4
v 6.2 4.5 -1.4
v 6.2 4.6 -1.4
v 9.6 4.8 -1.4
v 9.6 4.9 -1.4
v 9.7 4.5 -1.4
v 9.7 4.6 -1.4
v 9.7 4.7 -1.4
v 9.7 4.9 -1.4
v 3.4 4 -1.5
v 3.4 4.4 -1.5
v 3.5 3.9 -1.5
v 3.5 4 -1.5
v 3.5 4.4 -1.5
v 3.5 4.7 -1.5
v 3.5 4.8 -1.5
v 3.6 4.2 -1.5
v 3.6 4.4 -1.5
v 3.7 4.1 -1.5
v 3.7 4.2 -1.5
v 3.7 4.4 -1.5
v 3.7 4.7 -1.5
v 3.7 4.8 -1.5
v 3.9 4.1 -1.5
v 3.9 4.2 -1.5
v 4 3.9 -1.5
v 4 4 -1.5
v 4 4.3 -1.5
v 4.1 4 -1.5
v 4.1 4.3 -1.5
v 9.6 4.6 -1.5
v 9.6 4.7 -1.5
v 9.7 4.6 -1.5
v 9.7 4.7 -1.5
v 4.1 4.5 -1.6
v 4.1 4.6 -1.6
v 4.1 4.7 -1.6
v 4.1 4.8 -1.6
v 9.6 4.8 -1.6
v 9.6 4.9 -1.6
v 9.7 4.5 -1.6
v 9.7 4.6 -1.6
v 9.7 4.7 -1.6
v 9.7 4.9 -1.6
v 9.6 4.6 -1.7
v 9.6 4.7 -1.7
v 9.7 4.6 -1.7
v 9.7 4.7 -1.7
v 9.6 4.6 -1.4
v 9.6 4.7 -1.4
v 9.7 4.6 -1.4
v 9.7 4.7 -1.4
v 4.1 4.5 -1.5
v 4.1 4.6 -1.5
v 4.1 4.7 -1.5
v 4.1 4.8 -1.5
v 9.6 4.8 -1.5
v 9.6 4.9 -1.5
v 9.7 4.5 -1.5
v 9.7 4.6 -1.5
v 9.7 4.7 -1.5
v 9.7 4.9 -1.5
v 3.4 4 -1.6
v 3.4 4.4 -1.6
v 3.5 3.9 -1.6
v 3.5 4 -1.6
v 3.5 4.4 -1.6
v 3.5 4.7 -1.6
v 3.5 4.8 -1.6
v 3.6 4.2 -1.6
v 3.6 4.4 -1.6
v 3.7 4.1 -1.6
v 3.7 4.2 -1.6
v 3.7 4.4 -1.6
v 3.7 4.7 -1.6
v 3.7 4.8 -1.6
v 3.9 4.1 -1.6
v 3.9 4.2 -1.6
v 4 3.9 -1.6
v 4 4 -1.6
v 4 4.3 -1.6
v 4.1 4 -1.6
v 4.1 4.3 -1.6
v 9.6 4.6 -1.6
v 9.6 4.7 -1.6
v 9.7 4.6 -1.6
v 9.7 4.7 -1.6
v 3.5 4.4 -1.7
v 3.5 4.7 -1.7
v 3.7 4.5 -1.7
v 3.7 4.7 -1.7
v 3.7 4.8 -1.7
v 4 4.3 -1.7
v 4 4.4 -1.7
v 4.1 4.3 -1.7
v 4.1 4.5 -1.7
v 6.2 4.5 -1.7
v 6.2 4.6 -1.7
v 9.6 4.8 -1.7
v 9.6 4.9 -1.7
v 9.7 4.5 -1.7
v 9.7 4.6 -1.7
v 9.7 4.7 -1.7
v 9.7 4.9 -1.7
v 3.7 4.5 -1.8
v 3.7 4.7 -1.8
v 6.2 4.5 -1.8
v 6.2 4.6 -1.8
v 9.7 4.6 -1.8
v 9.7 4.7 -1.8
v 3.5 3.9 -1.5
v 4 3.9 -1.5
v 3.5 3.9 -1.6
v 4 3.9 -1.6
v 3.4 4 -1.5
v 3.5 4 -1.5
v 4 4 -1.5
v 4.1 4 -1.5
v 3.4 4 -1.6
v 3.5 4 -1.6
v 4 4 -1.6
v 4.1 4 -1.6
v 3.7 4.1 -1.5
v 3.9 4.1 -1.5
v 3.7 4.1 -1.6
v 3.9 4.1 -1.6
v 3.6 4.2 -1.5
v 3.7 4.2 -1.5
v 3.6 4.2 -1.6
v 3.7 4.2 -1.6
v 4 4.3 -1.4
v 4.1 4.3 -1.4
v 4 4.3 -1.5
v 4.1 4.3 -1.5
v 4 4.3 -1.6
v 4.1 4.3 -1.6
v 4 4.3 -1.7
v 4.1 4.3 -1.7
v 3.5 4.4 -1.4
v 4 4.4 -1.4
v 3.5 4.4 -1.5
v 3.6 4.4 -1.5
v 3.7 4.4 -1.5
v 4 4.4 -1.5
v 3.5 4.4 -1.6
v 3.6 4.4 -1.6
v 3.7 4.4 -1.6
v 4 4.4 -1.6
v 3.5 4.4 -1.7
v 4 4.4 -1.7
v 3.7 4.5 -1.3
v 6.2 4.5 -1.3
v 3.7 4.5 -1.4
v 4.1 4.5 -1.4
v 6.2 4.5 -1.4
v 9.7 4.5 -1.4
v 4.1 4.5 -1.5
v 9.7 4.5 -1.5
v 4.1 4.5 -1.6
v 9.7 4.5 -1.6
v 3.7 4.5 -1.7
v 4.1 4.5 -1.7
v 6.2 4.5 -1.7
v 9.7 4.5 -1.7
v 3.7 4.5 -1.8
v 6.2 4.5 -1.8
v 6.2 4.6 -1.3
v 9.7 4.6 -1.3
v 6.2 4.6 -1.4
v 9.7 4.6 -1.4
v 4.1 4.6 -1.5
v 9.7 4.6 -1.5
v 4.1 4.6 -1.6
v 9.7 4.6 -1.6
v 6.2 4.6 -1.7
v 9.7 4.6 -1.7
v 6.2 4.6 -1.8
v 9.7 4.6 -1.8
v 9.6 4.7 -1.4
v 9.7 4.7 -1.4
v 9.6 4.7 -1.5
v 9.7 4.7 -1.5
v 9.6 4.7 -1.6
v 9.7 4.7 -1.6
v 9.6 4.7 -1.7
v 9.7 4.7 -1.7
v 3.5 4 -1.5
v 4 4 -1.5
v 3.5 4 -1.6
v 4 4 -1.6
v 3.7 4.2 -1.5
v 3.9 4.2 -1.5
v 3.7 4.2 -1.6
v 3.9 4.2 -1.6
v 3.4 4.4 -1.5
v 3.5 4.4 -1.5
v 3.4 4.4 -1.6
v 3.5 4.4 -1.6
v 9.6 4.6 -1.4
v 9.7 4.6 -1.4
v 9.6 4.6 -1.5
v 9.7 4.6 -1.5
v 9.6 4.6 -1.6
v 9.7 4.6 -1.6
v 9.6 4.6 -1.7
v 9.7 4.6 -1.7
v 3.7 4.7 -1.3
v 9.7 4.7 -1.3
v 3.5 4.7 -1.4
v 3.7 4.7 -1.4
v 9.7 4.7 -1.4
v 3.5 4.7 -1.5
v 3.7 4.7 -1.5
v 4.1 4.7 -1.5
v 9.7 4.7 -1.5
v 3.5 4.7 -1.6
v 3.7 4.7 -1.6
v 4.1 4.7 -1.6
v 9.7 4.7 -1.6
v 3.5 4.7 -1.7
v 3.7 4.7 -1.7
v 9.7 4.7 -1.7
v 3.7 4.7 -1.8
v 9.7 4.7 -1.8
v 3.7 4.8 -1.4
v 9.6 4.8 -1.4
v 3.5 4.8 -1.5
v 3.7 4.8 -1.5
v 4.1 4.8 -1.5
v 9.6 4.8 -1.5
v 3.5 4.8 -1.6
v 3.7 4.8 -1.6
v 4.1 4.8 -1.6
v 9.6 4.8 -1.6
v 3.7 4.8 -1.7
v 9.6 4.8 -1.7
v 9.6 4.9 -1.4
v 9.7 4.9 -1.4
v 9.6 4.9 -1.5
v 9.7 4.9 -1.5
v 9.6 4.9 -1.6
v 9.7 4.9 -1.6
v 9.6 4.9 -1.7
v 9.7 4.9 -1.7

# faces
f 3/2/1 2/2/1 1/2/1
f 4/2/1 2/2/1 3/2/1
f 7/2/1 6/2/1 5/2/1
f 8/2/1 6/2/1 7/2/1
f 13/2/1 11/2/1 10/2/1
f 13/3/1 10/3/1 9/3/1
f 14/3/1 12/3/1 11/3/1
f 14/2/1 11/2/1 13/2/1
f 15/3/1 13/3/1 9/3/1
f 15/5/1 14/5/1 13/5/1
f 16/3/1 12/3/1 14/3/1
f 16/5/1 14/5/1 15/5/1
f 17/3/1 15/3/1 9/3/1
f 18/2/1 16/2/1 15/2/1
f 18/3/1 15/3/1 17/3/1
f 19/3/1 12/3/1 16/3/1
f 19/2/1 16/2/1 18/2/1
f 20/3/1 12/3/1 19/3/1
f 21/3/1 19/3/1 18/3/1
f 22/3/1 19/3/1 21/3/1
f 25/4/1 24/4/1 23/4/1
f 26/4/1 24/4/1 25/4/1
f 29/4/1 28/4/1 27/4/1
f 30/4/1 28/4/1 29/4/1
f 35/3/1 32/3/1 31/3/1
f 36/3/1 32/3/1 35/3/1
f 39/3/1 34/3/1 33/3/1
f 40/3/1 34/3/1 39/3/1
f 41/3/1 37/3/1 36/3/1
f 42/3/1 37/3/1 41/3/1
f 43/3/1 39/3/1 38/3/1
f 44/3/1 39/3/1 43/3/1
f 48/2/1 46/2/1 45/2/1
f 49/2/1 46/2/1 48/2/1
f 51/3/1 48/3/1 47/3/1
f 52/2/1 49/2/1 48/2/1
f 52/3/1 48/3/1 51/3/1
f 53/3/1 50/3/1 49/3/1
f 53/2/1 49/2/1 52/2/1
f 54/3/1 50/3/1 53/3/1
f 59/3/1 56/3/1 55/3/1
f 60/3/1 56/3/1 59/3/1
f 61/3/1 58/3/1 57/3/1
f 62/3/1 58/3/1 61/3/1
f 63/2/2 64/2/2 65/2/2
f 65/2/2 64/2/2 66/2/2
f 67/4/2 68/4/2 69/4/2
f 69/4/2 68/4/2 70/4/2
f 71/4/2 72/4/2 73/4/2
f 73/4/2 72/4/2 74/4/2
f 75/2/2 76/2/2 77/2/2
f 77/2/2 76/2/2 78/2/2
f 79/2/2 80/2/2 82/2/2
f 82/2/2 80/2/2 83/2/2
f 81/3/2 82/3/2 85/3/2
f 82/2/2 83/2/2 85/2/2
f 83/3/2 84/3/2 86/3/2
f 85/2/2 83/2/2 86/2/2
f 81/3/2 85/3/2 87/3/2
f 85/5/2 86/5/2 88/5/2
f 87/3/2 85/3/2 88/3/2
f 86/3/2 84/3/2 89/3/2
f 88/5/2 86/5/2 89/5/2
f 89/3/2 84/3/2 90/3/2
f 88/5/2 89/5/2 91/5/2
f 91/5/2 89/5/2 92/5/2
f 93/3/2 94/3/2 95/3/2
f 95/3/2 94/3/2 96/3/2
f 97/3/2 98/3/2 101/3/2
f 101/3/2 98/3/2 102/3/2
f 99/3/2 100/3/2 103/3/2
f 103/3/2 100/3/2 104/3/2
f 105/1/2 106/1/2 109/1/2
f 109/1/2 106/1/2 110/1/2
f 107/1/2 108/1/2 111/1/2
f 111/1/2 108/1/2 112/1/2
f 113/3/2 114/3/2 118/3/2
f 118/3/2 114/3/2 119/3/2
f 115/3/2 116/3/2 120/3/2
f 120/3/2 116/3/2 121/3/2
f 117/3/2 118/3/2 123/3/2
f 123/3/2 118/3/2 124/3/2
f 119/3/2 120/3/2 125/3/2
f 125/3/2 120/3/2 126/3/2
f 121/3/2 122/3/2 127/3/2
f 127/3/2 122/3/2 128/3/2
f 124/3/2 125/3/2 129/3/2
f 129/3/2 125/3/2 130/3/2
f 126/3/2 127/3/2 131/3/2
f 131/3/2 127/3/2 132/3/2
f 135/3/3 134/3/3 133/3/3
f 136/3/3 134/3/3 135/3/3
f 137/3/3 134/3/3 136/3/3
f 138/3/3 134/3/3 137/3/3
f 141/3/3 140/3/3 139/3/3
f 142/3/3 140/3/3 141/3/3
f 145/3/3 141/3/3 139/3/3
f 146/3/3 145/3/3 144/3/3
f 147/3/3 141/3/3 145/3/3
f 147/3/3 145/3/3 146/3/3
f 150/3/3 143/3/3 142/3/3
f 152/3/3 149/3/3 148/3/3
f 153/3/3 149/3/3 152/3/3
f 154/3/3 151/3/3 150/3/3
f 154/3/3 150/3/3 142/3/3
f 155/3/3 151/3/3 154/3/3
f 159/2/3 157/2/3 156/2/3
f 160/2/3 157/2/3 159/2/3
f 166/4/3 164/4/3 163/4/3
f 167/4/3 164/4/3 166/4/3
f 168/3/3 162/3/3 161/3/3
f 169/3/3 162/3/3 168/3/3
f 170/4/3 166/4/3 165/4/3
f 171/4/3 166/4/3 170/4/3
f 172/2/3 159/2/3 158/2/3
f 173/2/3 159/2/3 172/2/3
f 175/2/3 174/2/3 173/2/3
f 176/2/3 174/2/3 175/2/3
f 179/3/3 178/3/3 177/3/3
f 180/3/3 178/3/3 179/3/3
f 185/3/3 184/3/3 183/3/3
f 187/3/3 182/3/3 181/3/3
f 188/3/3 182/3/3 187/3/3
f 189/3/3 186/3/3 185/3/3
f 189/3/3 185/3/3 183/3/3
f 190/3/3 186/3/3 189/3/3
f 193/3/3 192/3/3 191/3/3
f 194/3/3 192/3/3 193/3/3
f 195/3/4 196/3/4 197/3/4
f 197/3/4 196/3/4 198/3/4
f 201/3/4 202/3/4 203/3/4
f 199/3/4 200/3/4 205/3/4
f 205/3/4 200/3/4 206/3/4
f 203/3/4 204/3/4 207/3/4
f 201/3/4 203/3/4 207/3/4
f 207/3/4 204/3/4 208/3/4
f 209/2/4 210/2/4 212/2/4
f 212/2/4 210/2/4 213/2/4
f 216/4/4 217/4/4 219/4/4
f 219/4/4 217/4/4 220/4/4
f 214/3/4 215/3/4 221/3/4
f 221/3/4 215/3/4 222/3/4
f 218/4/4 219/4/4 223/4/4
f 223/4/4 219/4/4 224/4/4
f 211/2/4 212/2/4 225/2/4
f 225/2/4 212/2/4 226/2/4
f 226/2/4 227/2/4 228/2/4
f 228/2/4 227/2/4 229/2/4
f 230/3/4 231/3/4 232/3/4
f 232/3/4 231/3/4 233/3/4
f 234/3/4 235/3/4 236/3/4
f 236/3/4 235/3/4 237/3/4
f 234/3/4 236/3/4 240/3/4
f 239/3/4 240/3/4 241/3/4
f 240/3/4 236/3/4 242/3/4
f 241/3/4 240/3/4 242/3/4
f 237/3/4 238/3/4 245/3/4
f 243/3/4 244/3/4 247/3/4
f 247/3/4 244/3/4 248/3/4
f 245/3/4 246/3/4 249/3/4
f 237/3/4 245/3/4 249/3/4
f 249/3/4 246/3/4 250/3/4
f 251/3/4 252/3/4 253/3/4
f 253/3/4 252/3/4 254/3/4
f 254/3/4 252/3/4 255/3/4
f 255/3/4 252/3/4 256/3/4
f 259/2/5 258/2/5 257/2/5
f 260/2/5 258/2/5 259/2/5
f 265/2/5 262/2/5 261/2/5
f 266/2/5 262/2/5 265/2/5
f 267/2/5 264/2/5 263/2/5
f 268/2/5 264/2/5 267/2/5
f 271/4/5 270/4/5 269/4/5
f 272/4/5 270/4/5 271/4/5
f 275/4/5 274/4/5 273/4/5
f 276/4/5 274/4/5 275/4/5
f 279/3/5 278/3/5 277/3/5
f 280/3/5 278/3/5 279/3/5
f 283/3/5 282/3/5 281/3/5
f 284/3/5 282/3/5 283/3/5
f 287/3/5 286/3/5 285/3/5
f 288/3/5 286/3/5 287/3/5
f 289/3/5 286/3/5 288/3/5
f 290/3/5 286/3/5 289/3/5
f 291/2/5 288/2/5 287/2/5
f 292/2/5 288/2/5 291/2/5
f 293/2/5 290/2/5 289/2/5
f 294/2/5 290/2/5 293/2/5
f 295/3/5 292/3/5 291/3/5
f 295/3/5 293/3/5 292/3/5
f 295/3/5 294/3/5 293/3/5
f 296/3/5 294/3/5 295/3/5
f 299/3/5 298/3/5 297/3/5
f 300/3/5 298/3/5 299/3/5
f 301/3/5 298/3/5 300/3/5
f 303/3/5 302/3/5 301/3/5
f 303/3/5 301/3/5 300/3/5
f 304/3/5 302/3/5 303/3/5
f 308/3/5 306/3/5 305/3/5
f 309/3/5 306/3/5 308/3/5
f 310/3/5 306/3/5 309/3/5
f 311/3/5 308/3/5 307/3/5
f 311/3/5 309/3/5 308/3/5
f 312/3/5 309/3/5 311/3/5
f 315/3/5 314/3/5 313/3/5
f 316/3/5 314/3/5 315/3/5
f 319/3/5 318/3/5 317/3/5
f 320/3/5 318/3/5 319/3/5
f 323/3/5 322/3/5 321/3/5
f 324/3/5 322/3/5 323/3/5
f 327/3/5 326/3/5 325/3/5
f 328/3/5 326/3/5 327/3/5
f 331/3/5 330/3/5 329/3/5
f 332/3/5 330/3/5 331/3/5
f 333/2/6 334/2/6 335/2/6
f 335/2/6 334/2/6 336/2/6
f 337/4/6 338/4/6 339/4/6
f 339/4/6 338/4/6 340/4/6
f 341/2/6 342/2/6 343/2/6
f 343/2/6 342/2/6 344/2/6
f 345/3/6 346/3/6 347/3/6
f 347/3/6 346/3/6 348/3/6
f 349/3/6 350/3/6 351/3/6
f 351/3/6 350/3/6 352/3/6
f 353/3/6 354/3/6 356/3/6
f 356/3/6 354/3/6 357/3/6
f 355/3/6 356/3/6 358/3/6
f 358/3/6 356/3/6 359/3/6
f 360/3/6 361/3/6 364/3/6
f 364/3/6 361/3/6 365/3/6
f 362/3/6 363/3/6 366/3/6
f 366/3/6 363/3/6 367/3/6
f 367/3/6 368/3/6 369/3/6
f 369/3/6 368/3/6 370/3/6
f 371/3/6 372/3/6 374/3/6
f 374/3/6 372/3/6 375/3/6
f 375/3/6 372/3/6 376/3/6
f 373/3/6 374/3/6 377/3/6
f 374/3/6 375/3/6 377/3/6
f 377/3/6 375/3/6 378/3/6
f 378/3/6 375/3/6 379/3/6
f 379/3/6 380/3/6 381/3/6
f 378/3/6 379/3/6 381/3/6
f 381/3/6 380/3/6 382/3/6
f 383/3/6 384/3/6 385/3/6
f 385/3/6 384/3/6 386/3/6
f 387/3/6 388/3/6 389/3/6
f 389/3/6 388/3/6 390/3/6
